<svg width="512" height="512" viewBox="0 0 512 512" xmlns="http://www.w3.org/2000/svg">
  <!-- Background circle with theme color -->
  <circle cx="256" cy="256" r="240" fill="#A8E6CF" stroke="#7FD0A7" stroke-width="8"/>

  <!-- Book base -->
  <rect x="160" y="200" width="192" height="140" fill="#FFE4B5" stroke="#D4B89A" stroke-width="3" rx="8"/>

  <!-- Book pages -->
  <rect x="170" y="210" width="172" height="120" fill="#FFFFFF" stroke="#E0E0E0" stroke-width="2" rx="4"/>

  <!-- Book spine -->
  <rect x="160" y="200" width="20" height="140" fill="#D4B89A" rx="8 0 0 8"/>

  <!-- Moon and stars (bedtime theme) -->
  <circle cx="220" cy="150" r="25" fill="#FFFACD" stroke="#F0E68C" stroke-width="2"/>
  <!-- Moon crescent -->
  <circle cx="228" cy="142" r="18" fill="#A8E6CF"/>

  <!-- Stars -->
  <g fill="#F0E68C" stroke="#DAA520" stroke-width="1">
    <polygon points="300,130 305,140 315,140 308,148 311,158 300,152 289,158 292,148 285,140 295,140" />
    <polygon points="340,160 343,167 350,167 345,172 347,179 340,175 333,179 335,172 330,167 337,167" />
    <polygon points="280,180 283,187 290,187 285,192 287,199 280,195 273,199 275,192 270,187 277,187" />
  </g>

  <!-- Open book content lines (representing story text) -->
  <g stroke="#B0B0B0" stroke-width="2" stroke-linecap="round">
    <line x1="185" y1="230" x2="320" y2="230"/>
    <line x1="185" y1="245" x2="310" y2="245"/>
    <line x1="185" y1="260" x2="325" y2="260"/>
    <line x1="185" y1="275" x2="300" y2="275"/>
    <line x1="185" y1="290" x2="315" y2="290"/>
    <line x1="185" y1="305" x2="295" y2="305"/>
  </g>

  <!-- Cute sleeping character (teddy bear) on the book -->
  <g transform="translate(260, 240)">
    <!-- Bear body -->
    <ellipse cx="0" cy="20" rx="25" ry="20" fill="#DEB887"/>
    <!-- Bear head -->
    <circle cx="0" cy="0" r="18" fill="#DEB887"/>
    <!-- Bear ears -->
    <circle cx="-12" cy="-10" r="8" fill="#DEB887"/>
    <circle cx="12" cy="-10" r="8" fill="#DEB887"/>
    <circle cx="-12" cy="-10" r="5" fill="#CD853F"/>
    <circle cx="12" cy="-10" r="5" fill="#CD853F"/>
    <!-- Bear face -->
    <circle cx="-6" cy="-3" r="2" fill="#000000"/> <!-- left eye -->
    <circle cx="6" cy="-3" r="2" fill="#000000"/>  <!-- right eye -->
    <!-- Sleeping eyes (closed) -->
    <path d="M -8,-3 Q -6,-1 -4,-3" stroke="#000000" stroke-width="2" fill="none"/>
    <path d="M 4,-3 Q 6,-1 8,-3" stroke="#000000" stroke-width="2" fill="none"/>
    <!-- Bear nose -->
    <circle cx="0" cy="3" r="2" fill="#000000"/>
    <!-- Bear mouth (sleeping smile) -->
    <path d="M -4,6 Q 0,9 4,6" stroke="#000000" stroke-width="1.5" fill="none"/>
    <!-- Arms -->
    <ellipse cx="-20" cy="10" rx="8" ry="12" fill="#DEB887"/>
    <ellipse cx="20" cy="10" rx="8" ry="12" fill="#DEB887"/>
    <!-- Legs -->
    <ellipse cx="-12" cy="35" rx="8" ry="10" fill="#DEB887"/>
    <ellipse cx="12" cy="35" rx="8" ry="10" fill="#DEB887"/>
  </g>

  <!-- Sparkles around the scene -->
  <g fill="#FFD700" opacity="0.8">
    <circle cx="380" cy="200" r="3"/>
    <circle cx="400" cy="280" r="2"/>
    <circle cx="130" cy="250" r="3"/>
    <circle cx="120" cy="300" r="2"/>
    <circle cx="360" cy="320" r="2"/>
    <circle cx="140" cy="180" r="2"/>
  </g>

  <!-- Magical wand with trail (AI/interactive element) -->
  <g transform="translate(350, 300)">
    <line x1="0" y1="0" x2="30" y2="-25" stroke="#D4AF37" stroke-width="3" stroke-linecap="round"/>
    <polygon points="30,-25 35,-20 40,-25 35,-30" fill="#FFD700"/>
    <!-- Magic trail -->
    <circle cx="25" cy="-15" r="2" fill="#FFD700" opacity="0.7"/>
    <circle cx="20" cy="-10" r="1.5" fill="#FFD700" opacity="0.5"/>
    <circle cx="15" cy="-5" r="1" fill="#FFD700" opacity="0.3"/>
  </g>
</svg>